<?xml version="1.0" encoding="iso-8859-1"?>
<!-- Generator: Adobe Illustrator 19.0.0, SVG Export Plug-In . SVG Version: 6.00 Build 0)  -->
<svg version="1.1" id="Layer_1" xmlns="http://www.w3.org/2000/svg" xmlns:xlink="http://www.w3.org/1999/xlink" x="0px" y="0px"
	 viewBox="0 0 512 512" style="enable-background:new 0 0 512 512;" xml:space="preserve">
<g>
	<path style="fill:#E8D5B2;" d="M474.977,450.207H37.032C16.578,450.207,0,433.629,0,413.184V98.816
		c0-20.445,16.578-37.023,37.032-37.023h437.945c20.454,0,37.023,16.578,37.023,37.023v314.368
		C512,433.629,495.431,450.207,474.977,450.207"/>
	<path style="fill:#FFE9C7;" d="M288.413,269.965L500.734,72.289c-6.665-6.471-15.731-10.496-25.759-10.496H37.03
		c-10.028,0-19.085,4.025-25.759,10.496l212.321,197.676C241.856,286.967,270.149,286.967,288.413,269.965"/>
	<path style="fill:#D1BD9D;" d="M295.441,263.422l-7.027,6.541c-18.264,17.002-46.557,17.002-64.821,0l-7.027-6.541L11.731,440.088
		c6.63,6.232,15.484,10.116,25.3,10.116h437.945c9.816,0,18.67-3.884,25.3-10.116L295.441,263.422z"/>
</g>
<g>
</g>
<g>
</g>
<g>
</g>
<g>
</g>
<g>
</g>
<g>
</g>
<g>
</g>
<g>
</g>
<g>
</g>
<g>
</g>
<g>
</g>
<g>
</g>
<g>
</g>
<g>
</g>
<g>
</g>
</svg>
